# xmcd
#
# Track frame offsets:
#	150
#	19376
#	32872
#	48234
#	62161
#	86940
#	105451
#	125653
#	151376
#	170646
#	183769
#	197147
#	213109
#	227709
#	247418
#
# Disc length: 3657 seconds
#
# Revision: 1
# Processed by: cddbd v1.5.2PL0 Copyright (c) Steve Scherf et al.
# Submitted via: audiograbber 1.83.01
#
DISCID=d60e470f
DTITLE=Dolly Parton - Dolly Parton Live From London
DYEAR=2009
DGENRE=Country
TTITLE0=Two Doors Down
TTITLE1=Jolene
TTITLE2=Backwoods Barbie
TTITLE3=Coat of Many Colors
TTITLE4=Only Dreamin'
TTITLE5=Better Get to Livin'
TTITLE6=Shinola
TTITLE7=Little Sparrow
TTITLE8=Grass Is Blue, The
TTITLE9=Do I Ever Cross Your Mind
TTITLE10=Here You Come Again
TTITLE11=Islands in the Stream
TTITLE12=9 to 5
TTITLE13=I Will Always Love You
TTITLE14=Jesus and Gravity
EXTD=CD and DVD  2 Disc Set
EXTT0=
EXTT1=
EXTT2=
EXTT3=
EXTT4=
EXTT5=
EXTT6=
EXTT7=
EXTT8=
EXTT9=
EXTT10=
EXTT11=
EXTT12=
EXTT13=
EXTT14=
PLAYORDER=
